<svg width="32" height="32" viewBox="0 0 32 32" fill="none" xmlns="http://www.w3.org/2000/svg">
<path d="M9.29364 20.4004C10.1679 19.5113 11.3423 17.5617 9.79237 17.4429C9.36639 17.6164 8.97953 17.8179 8.87007 17.9599C8.65296 18.2417 8.24855 18.294 7.96683 18.0769C7.68504 17.8598 7.63266 17.4554 7.84976 17.1736C8.17073 16.7572 8.83856 16.4295 9.37982 16.2172C9.46954 15.7678 9.1363 15.1965 9.1363 15.1965L18.3581 3.23043L18.2142 1.69257L18.9628 2.26955L19.6183 1.41909L22.382 3.54901L17.6329 9.71153C16.9133 10.6452 16.303 12.5097 17.5981 13.7194C17.7104 13.7823 17.8202 13.851 17.9244 13.9313C19.3005 14.9918 19.3919 17.1889 18.128 18.8289C17.4051 19.7669 16.3931 20.3227 15.4019 20.4284C15.3426 20.4348 15.2839 20.4368 15.2248 20.4396L15.2259 20.4409C15.2259 20.4409 15.2221 20.4401 15.221 20.44C11.3679 18.8516 9.29364 20.4004 9.29364 20.4004ZM12.6169 12.4824L10.7493 14.9059C10.6069 15.0907 10.6411 15.3563 10.826 15.4988C11.0108 15.6412 11.2765 15.6068 11.419 15.4219L13.2866 12.9985C13.4291 12.8136 13.3947 12.5481 13.2098 12.4056C13.0249 12.2632 12.7594 12.2976 12.6169 12.4824ZM13.733 13.3425L11.8654 15.766C11.7229 15.9508 11.7572 16.2165 11.9421 16.3589C12.127 16.5014 12.3925 16.4669 12.535 16.282L14.4026 13.8586C14.5451 13.6737 14.5108 13.4083 14.3259 13.2657C14.141 13.1233 13.8755 13.1576 13.733 13.3425ZM16.9879 17.9503C17.7541 16.9561 17.7808 15.6376 17.0458 15.0712C16.3109 14.5049 15.0425 14.8663 14.2763 15.8605C14.0865 16.1067 13.9425 16.3729 13.8437 16.6427C14.5408 16.815 15.5372 16.9329 15.9052 16.5585C16.0923 16.3683 16.3983 16.3658 16.5886 16.553C16.7646 16.726 16.7799 17.0009 16.6327 17.1918C16.6209 17.2073 16.608 17.2221 16.5941 17.2363C15.8648 17.9775 14.4899 17.7923 13.6879 17.5995C13.7091 18.0677 13.884 18.4821 14.2186 18.7399C14.9535 19.3062 16.2217 18.9446 16.9879 17.9503Z" fill="white"/>
<path d="M9.38611 21.1151C11.8242 19.4026 14.9157 21.1072 14.9157 21.1072C14.3211 22.0828 17.3705 24.6933 17.3705 24.6933C19.2069 25.6273 19.1285 30.0883 15.1161 29.1569C9.64864 27.8879 9.01224 21.8548 9.38611 21.1151Z" fill="white"/>
</svg>
